<svg width="64" height="64" viewBox="0 0 64 64" fill="none" xmlns="http://www.w3.org/2000/svg">
<path d="M55.882 56.0563V31.5248C55.882 17.9679 44.9074 6.99329 31.3505 6.99329C17.7936 6.99329 6.819 17.9679 6.819 31.5248C6.819 45.0817 17.7936 56.0563 31.3505 56.0563H55.882ZM47.6919 48.4182H31.5404C22.6145 48.4182 15.3889 41.1925 15.3889 32.2667C15.3889 23.3408 22.6145 16.1152 31.5404 16.1152C40.4662 16.1152 47.6919 23.3408 47.6919 32.2667V48.4182Z" fill="#FFD700"/>
<path d="M31.3505 27.0988C31.3505 29.9443 29.0281 32.2667 26.1827 32.2667C23.3373 32.2667 21.0149 29.9443 21.0149 27.0988C21.0149 24.2534 23.3373 21.931 26.1827 21.931C29.0281 21.931 31.3505 24.2534 31.3505 27.0988ZM36.5183 21.931C33.6729 21.931 31.3505 24.2534 31.3505 27.0988C31.3505 29.9443 33.6729 32.2667 36.5183 32.2667C39.3638 32.2667 41.6861 29.9443 41.6861 27.0988C41.6861 24.2534 39.3638 21.931 36.5183 21.931ZM26.1827 32.2667C23.3373 32.2667 21.0149 34.589 21.0149 37.4345C21.0149 40.2799 23.3373 42.6023 26.1827 42.6023C29.0281 42.6023 31.3505 40.2799 31.3505 37.4345C31.3505 34.589 29.0281 32.2667 26.1827 32.2667ZM36.5183 32.2667C33.6729 32.2667 31.3505 34.589 31.3505 37.4345C31.3505 40.2799 33.6729 42.6023 36.5183 42.6023C39.3638 42.6023 41.6861 40.2799 41.6861 37.4345C41.6861 34.589 39.3638 32.2667 36.5183 32.2667Z" fill="#FFD700"/>
</svg>
